# xmcd
#
# Track frame offsets: 
#        150
#        19283
#        34694
#        50771
#        67663
#        83215
#        101061
#        120835
#        139038
#        158140
#        171845
#        190414
#        208789
#
# Disc length: 2989 seconds
#
# Revision: 0
# Processed by: cddbd v1.5.2PL0 Copyright (c) Steve Scherf et al.
# Submitted via: ExactAudioCopy v0.95b4
#
DISCID=ad0bab0d
DTITLE=Alan Jackson - Like Red On A Rose
DYEAR=2006
DGENRE=Country
TTITLE0=Anywhere On Earth You Are
TTITLE1=Good Imitation Of The Blues
TTITLE2=Like Red On A Rose
TTITLE3=Nobody Said That It Would Be Easy
TTITLE4=Don't Change On Me
TTITLE5=The Firefly's Song
TTITLE6=Wait A Minute
TTITLE7=Had It Not Been You
TTITLE8=A Woman's Love
TTITLE9=Don't Ask Why
TTITLE10=As Lovely As You
TTITLE11=Where Do I Go From Here (A Trucker's Song)
TTITLE12=Bluebird
EXTD=
EXTT0=
EXTT1=
EXTT2=
EXTT3=
EXTT4=
EXTT5=
EXTT6=
EXTT7=
EXTT8=
EXTT9=
EXTT10=
EXTT11=
EXTT12=
PLAYORDER=
